<?xml version="1.0" encoding="utf-8"?>
<!-- Generator: Adobe Illustrator 16.0.0, SVG Export Plug-In . SVG Version: 6.00 Build 0)  -->
<!DOCTYPE svg PUBLIC "-//W3C//DTD SVG 1.1//EN" "http://www.w3.org/Graphics/SVG/1.1/DTD/svg11.dtd">
<svg version="1.1" id="Layer_1" xmlns="http://www.w3.org/2000/svg" xmlns:xlink="http://www.w3.org/1999/xlink" x="0px" y="0px"
	 width="416px" height="448px" viewBox="0 0 416 448" enable-background="new 0 0 416 448" xml:space="preserve">
<g id="Layer_2" display="none">
	<path display="inline" d="M409,58H9.384v32.409H409V58z M409,208.721H9.384v32.4H409V208.721z M409,359.452H9.384v32.399H409
		V359.452z"/>
</g>
<g id="Layer_3" display="none">
	<path display="inline" d="M338.042,313.617c-16.55,0-32.014,7.604-42.112,20.529l-175.646-87.822
		c1.247-4.567,1.877-9.233,1.877-13.919s-0.63-9.351-1.877-13.918L295.93,130.67c10.113,12.928,25.577,20.537,42.111,20.537
		c29.491,0,53.483-23.989,53.483-53.477c0-29.487-23.992-53.476-53.483-53.476c-29.482,0-53.469,23.989-53.469,53.476
		c0,4.686,0.63,9.354,1.877,13.925l-175.646,87.81c-10.104-12.923-25.568-20.529-42.112-20.529
		c-29.483,0-53.469,23.986-53.469,53.47c0,29.49,23.986,53.482,53.469,53.482c16.544,0,32.009-7.611,42.113-20.543l175.644,87.823
		c-1.246,4.565-1.876,9.231-1.876,13.918c0,29.483,23.985,53.47,53.469,53.47c29.491,0,53.483-23.985,53.483-53.47
		C391.524,337.604,367.533,313.617,338.042,313.617z M338.042,399.317c-17.771,0-32.229-14.46-32.229-32.23
		s14.459-32.229,32.229-32.229c17.772,0,32.231,14.459,32.231,32.229S355.815,399.317,338.042,399.317z M68.692,264.635
		c-17.772,0-32.23-14.459-32.23-32.229c0-17.768,14.458-32.224,32.23-32.224s32.23,14.456,32.23,32.224
		C100.923,250.177,86.464,264.635,68.692,264.635z M338.042,65.499c17.772,0,32.231,14.458,32.231,32.23
		c0,17.771-14.459,32.229-32.231,32.229c-17.771,0-32.229-14.458-32.229-32.229S320.271,65.499,338.042,65.499z"/>
</g>
<g id="Layer_4" display="none">
	<path display="inline" d="M271.586,158.243h-39.477c-4.67,0-9.885,6.141-9.885,14.357v28.504h49.361v40.638h-49.361v122.014
		h-46.593V241.742h-42.247v-40.638h42.247v-23.916c0-34.292,23.801-62.188,56.478-62.188h39.478L271.586,158.243L271.586,158.243z"
		/>
</g>
<g id="Layer_5" display="none">
	<path display="inline" d="M361.406,144.065c-11.123,4.936-23.062,8.261-35.604,9.762c12.806-7.676,22.622-19.82,27.264-34.298
		c-11.979,7.105-25.253,12.261-39.365,15.042C302.381,122.524,286.273,115,268.443,115c-34.229,0-61.985,27.75-61.985,61.985
		c0,4.861,0.537,9.59,1.61,14.126c-51.521-2.582-97.218-27.261-127.785-64.766c-5.327,9.156-8.398,19.806-8.398,31.165
		c0,21.506,10.944,40.472,27.578,51.598c-10.147-0.324-19.717-3.104-28.075-7.753c0,0.256,0,0.51,0,0.771
		c0,30.043,21.37,55.103,49.718,60.788c-5.19,1.419-10.67,2.176-16.329,2.176c-3.993,0-7.876-0.385-11.663-1.113
		c7.891,24.631,30.787,42.558,57.911,43.053c-21.217,16.634-47.94,26.546-76.979,26.546c-5.012,0-9.941-0.304-14.788-0.882
		c27.427,17.598,60.004,27.869,95.016,27.869c114.018,0,176.389-94.468,176.389-176.39c0-2.685-0.069-5.356-0.192-8.027
		C342.585,167.416,353.091,156.498,361.406,144.065z"/>
</g>
<g id="Layer_7" display="none">
	<path display="inline" d="M80.485,166.984c7.403,3.981,109.95,59.065,113.766,61.112c3.815,2.055,8.763,3.047,13.749,3.047
		c4.973,0,9.92-0.992,13.736-3.047c3.813-2.047,106.361-57.131,113.767-61.112c7.413-3.974,14.422-16.464,0.812-16.464H79.672
		C66.062,150.52,73.071,163.01,80.485,166.984z M338.643,197.318c-8.419,4.394-111.742,58.435-116.906,61.12
		c-5.15,2.683-8.764,3.039-13.735,3.039c-4.986,0-8.598-0.356-13.749-3.039c-5.15-2.685-108.488-56.726-116.908-61.12
		c-5.913-3.083-5.862,0.541-5.862,3.333c0,2.798,0,111.279,0,111.279c0,6.36,8.458,14.551,15.033,14.551h242.958
		c6.576,0,15.048-8.189,15.048-14.551c0,0,0-108.48,0-111.279C344.52,197.859,344.57,194.234,338.643,197.318z"/>
</g>
<g id="Layer_6" display="none">
	<path display="inline" d="M100.334,177.659c0,21.274,7.108,36.637,21.121,45.667c11.468,7.394,24.797,8.499,31.715,8.499
		c1.673,0,3.022-0.071,3.966-0.124c0,0-2.198,14.285,8.409,28.439l-0.489-0.012c-18.359,0-78.267,3.848-78.267,53.087
		c0,50.112,55.021,52.655,66.059,52.655c0.859,0,1.361-0.021,1.361-0.021c0.132,0,0.919,0.034,2.258,0.034
		c7.084,0,25.396-0.896,42.395-9.151c22.063-10.713,33.244-29.336,33.244-55.354c0-25.146-17.047-40.112-29.48-51.056
		c-7.598-6.651-14.167-12.409-14.167-18.008c0-5.703,4.802-9.984,10.859-15.421c9.819-8.774,19.064-21.269,19.064-44.892
		c0-20.761-2.688-34.695-19.28-43.541c1.732-0.884,7.848-1.529,10.872-1.947c8.994-1.23,22.135-2.622,22.135-9.963v-1.421h-65.521
		C165.927,115.147,100.334,117.578,100.334,177.659z M206.102,306.061c1.252,20.045-15.889,34.834-41.632,36.697
		c-26.136,1.912-47.662-9.855-48.905-29.863c-0.609-9.617,3.62-19.054,11.897-26.557c8.398-7.598,19.926-12.29,32.455-13.212
		c1.483-0.094,2.953-0.155,4.421-0.155C188.529,272.971,204.917,287.188,206.102,306.061z M188.994,163.945
		c6.426,22.601-3.285,46.243-18.743,50.601c-1.78,0.496-3.62,0.753-5.482,0.753c-14.169,0-28.205-14.334-33.413-34.074
		c-2.903-11.098-2.664-20.792,0.67-30.115c3.271-9.174,9.16-15.368,16.568-17.447c1.78-0.508,3.619-0.765,5.483-0.765
		C171.184,132.898,182.173,139.994,188.994,163.945z M299.383,213.184v-42.747h-27.068v42.747h-42.74v27.069h42.74v42.742h27.068
		v-42.742h42.741v-27.069H299.383z"/>
</g>
<path d="M19.822,126.565c-3.922-3.886-10.282-3.886-14.204,0c-3.917,3.874-3.922,10.174,0,14.06l195.621,194.489
	c3.922,3.88,10.282,3.88,14.209,0l195.61-194.489c3.915-3.886,3.928-10.18,0-14.06c-3.917-3.886-10.276-3.886-14.192-0.006
	L208.341,311.042L19.822,126.565z"/>
</svg>
