<?xml version="1.0" encoding="utf-8"?>
<!-- Generator: Adobe Illustrator 15.1.0, SVG Export Plug-In . SVG Version: 6.00 Build 0)  -->
<!DOCTYPE svg PUBLIC "-//W3C//DTD SVG 1.1//EN" "http://www.w3.org/Graphics/SVG/1.1/DTD/svg11.dtd">
<svg version="1.1" id="Layer_1" xmlns="http://www.w3.org/2000/svg" xmlns:xlink="http://www.w3.org/1999/xlink" x="0px" y="0px"
	 width="120.765px" height="100.546px" viewBox="0 0 120.765 100.546" enable-background="new 0 0 120.765 100.546"
	 xml:space="preserve">
<g>
	<g>
		<rect x="52.159" y="36.319" width="21.639" height="2"/>
	</g>
	<g>
		<rect x="52.159" y="42.319" width="21.639" height="2"/>
	</g>
	<g>
		<rect x="52.159" y="48.319" width="21.639" height="2"/>
	</g>
</g>
<g>
	<path d="M28.987,79.061l18.067-18.066C51.285,64.729,56.84,67,62.927,67c13.255,0,24-10.746,24-24s-10.745-24-24-24
		s-24,10.746-24,24c0,6.088,2.271,11.642,6.007,15.873L26.866,76.939L28.987,79.061z M62.927,65c-12.131,0-22-9.869-22-22
		s9.869-22,22-22s22,9.869,22,22S75.058,65,62.927,65z"/>
</g>
</svg>
