<?xml version="1.0" encoding="utf-8"?>
<!-- Generator: Adobe Illustrator 15.1.0, SVG Export Plug-In . SVG Version: 6.00 Build 0)  -->
<!DOCTYPE svg PUBLIC "-//W3C//DTD SVG 1.1//EN" "http://www.w3.org/Graphics/SVG/1.1/DTD/svg11.dtd">
<svg version="1.1" id="Layer_1" xmlns="http://www.w3.org/2000/svg" xmlns:xlink="http://www.w3.org/1999/xlink" x="0px" y="0px"
	 width="96.943px" height="96.941px" viewBox="8.426 1.56 96.943 96.941" enable-background="new 8.426 1.56 96.943 96.941"
	 xml:space="preserve">
<g>
	<g>
		<rect x="49.25" y="29.514" width="34.925" height="3.228"/>
	</g>
	<g>
		<rect x="49.25" y="39.197" width="34.925" height="3.228"/>
	</g>
	<g>
		<rect x="49.25" y="48.882" width="34.925" height="3.228"/>
	</g>
</g>
<g>
	<path d="M11.849,98.501l29.163-29.159c6.828,6.027,15.793,9.689,25.618,9.689c21.396,0,38.739-17.343,38.739-38.735
		S88.025,1.56,66.631,1.56c-21.396,0-38.737,17.345-38.737,38.737c0,9.827,3.665,18.792,9.695,25.619L8.426,95.076L11.849,98.501z
		 M66.63,75.804c-19.58,0-35.509-15.929-35.509-35.507c0-19.579,15.929-35.509,35.509-35.509c19.581,0,35.51,15.93,35.51,35.509
		C102.139,59.875,86.211,75.804,66.63,75.804z"/>
</g>
</svg>
