<?xml version="1.0" encoding="utf-8"?>
<!-- Generator: Adobe Illustrator 15.1.0, SVG Export Plug-In . SVG Version: 6.00 Build 0)  -->
<!DOCTYPE svg PUBLIC "-//W3C//DTD SVG 1.1//EN" "http://www.w3.org/Graphics/SVG/1.1/DTD/svg11.dtd">
<svg version="1.1" xmlns="http://www.w3.org/2000/svg" xmlns:xlink="http://www.w3.org/1999/xlink" x="0px" y="0px" width="30px"
	 height="32px" viewBox="0 0 30 32" enable-background="new 0 0 30 32" xml:space="preserve">
<g id="Layer_1" display="none">
	<path display="inline" d="M19.398,11.303h-2.819c-0.334,0-0.706,0.439-0.706,1.026v2.036h3.525v2.902h-3.525v8.715h-3.328v-8.715
		H9.527v-2.902h3.018v-1.708c0-2.449,1.7-4.442,4.034-4.442h2.819v3.089V11.303z"/>
</g>
<g id="Layer_2">
	<path d="M13.821,20.071c-0.47,2.467-1.045,4.835-2.747,6.069c-0.527-3.729,0.771-6.531,1.374-9.504
		c-1.027-1.731,0.124-5.21,2.291-4.351c2.667,1.053-2.308,6.427,1.031,7.099c3.487,0.701,4.909-6.05,2.748-8.244
		c-3.125-3.172-9.095-0.075-8.36,4.464c0.178,1.11,1.325,1.444,0.459,2.978c-2.001-0.444-2.596-2.021-2.521-4.123
		c0.124-3.44,3.093-5.85,6.07-6.185c3.765-0.421,7.3,1.383,7.786,4.925c0.55,4-1.697,8.329-5.726,8.015
		C15.135,21.132,14.676,20.591,13.821,20.071z"/>
</g>
</svg>
