<?xml version="1.0" encoding="utf-8"?>
<!-- Generator: Adobe Illustrator 15.1.0, SVG Export Plug-In . SVG Version: 6.00 Build 0)  -->
<!DOCTYPE svg PUBLIC "-//W3C//DTD SVG 1.1//EN" "http://www.w3.org/Graphics/SVG/1.1/DTD/svg11.dtd">
<svg version="1.1" xmlns="http://www.w3.org/2000/svg" xmlns:xlink="http://www.w3.org/1999/xlink" x="0px" y="0px" width="416px"
	 height="448px" viewBox="0 0 416 448" enable-background="new 0 0 416 448" xml:space="preserve">
<g id="Layer_1" display="none">
	<g id="Layer_1_2_">
		<g id="Layer_1_1_" display="inline">
			<g>
				<g>
					<path d="M229.217,232.185L379.74,75.394c6.035-6.104,6.035-15.979,0-22.072c-6.034-6.088-15.814-6.095-21.853,0
						L208.368,204.427L58.114,52.572c-6.032-6.095-15.814-6.095-21.853,0c-6.035,6.094-6.035,15.971,0,22.064l150.522,156.792
						L36.261,388.211c-6.035,6.088-6.035,15.979,0,22.066c6.021,6.088,15.817,6.104,21.853,0L207.62,259.179l150.268,151.854
						c6.035,6.089,15.815,6.089,21.853,0c6.035-6.102,6.035-15.978,0-22.062L229.217,232.185z"/>
				</g>
			</g>
		</g>
		<g id="Layer_2" display="inline">
			<path d="M409,58H9.384v32.409H409V58z M409,208.721H9.384v32.397H409V208.721z M409,359.452H9.384v32.399H409V359.452z"/>
		</g>
		<g id="Layer_3" display="inline">
			<path d="M338.039,313.617c-16.55,0-32.014,7.604-42.11,20.529l-175.645-87.822c1.244-4.567,1.877-9.233,1.877-13.919
				c0-4.685-0.633-9.351-1.877-13.918L295.93,130.67c10.113,12.931,25.577,20.537,42.108,20.537
				c29.491,0,53.483-23.986,53.483-53.477c0-29.487-23.992-53.479-53.483-53.479c-29.479,0-53.469,23.989-53.469,53.479
				c0,4.686,0.633,9.354,1.878,13.925l-175.646,87.81c-10.104-12.923-25.568-20.526-42.112-20.526
				c-29.48,0-53.469,23.983-53.469,53.47c0,29.491,23.986,53.483,53.469,53.483c16.544,0,32.012-7.611,42.113-20.543l175.644,87.82
				c-1.243,4.566-1.876,9.231-1.876,13.918c0,29.483,23.986,53.473,53.469,53.473c29.491,0,53.483-23.986,53.483-53.473
				C391.524,337.603,367.531,313.617,338.039,313.617z M338.039,399.317c-17.771,0-32.229-14.459-32.229-32.23
				c0-17.771,14.458-32.229,32.229-32.229c17.772,0,32.231,14.458,32.231,32.229C370.273,384.858,355.815,399.317,338.039,399.317z
				 M68.692,264.635c-17.771,0-32.229-14.459-32.229-32.23c0-17.768,14.458-32.224,32.229-32.224
				c17.772,0,32.23,14.456,32.23,32.224C100.923,250.177,86.464,264.635,68.692,264.635z M338.039,65.499
				c17.772,0,32.231,14.458,32.231,32.23c0,17.771-14.459,32.229-32.231,32.229c-17.771,0-32.229-14.458-32.229-32.229
				C305.813,79.958,320.271,65.499,338.039,65.499z"/>
		</g>
		<g id="Layer_4" display="inline">
			<path d="M271.586,158.243H232.11c-4.67,0-9.885,6.144-9.885,14.357v28.504h49.361v40.638h-49.361v122.014h-46.593V241.742
				h-42.247v-40.638h42.247v-23.916c0-34.292,23.801-62.188,56.478-62.188h39.479L271.586,158.243L271.586,158.243z"/>
		</g>
		<g id="Layer_5" display="inline">
			<path d="M361.406,144.065c-11.123,4.936-23.061,8.261-35.604,9.762c12.805-7.676,22.622-19.82,27.263-34.298
				c-11.979,7.104-25.253,12.261-39.365,15.042C302.381,122.524,286.273,115,268.443,115c-34.229,0-61.982,27.75-61.982,61.985
				c0,4.861,0.537,9.59,1.607,14.126c-51.521-2.582-97.218-27.261-127.782-64.766c-5.327,9.153-8.398,19.806-8.398,31.165
				c0,21.506,10.944,40.472,27.578,51.598c-10.147-0.324-19.717-3.104-28.075-7.753c0,0.256,0,0.51,0,0.771
				c0,30.043,21.37,55.104,49.718,60.788c-5.188,1.419-10.67,2.176-16.329,2.176c-3.99,0-7.876-0.385-11.662-1.111
				c7.893,24.631,30.786,42.558,57.91,43.053c-21.217,16.634-47.938,26.546-76.979,26.546c-5.012,0-9.941-0.303-14.788-0.881
				c27.427,17.597,60.004,27.868,95.016,27.868c114.021,0,176.389-94.467,176.389-176.392c0-2.685-0.066-5.354-0.189-8.024
				C342.585,167.416,353.091,156.498,361.406,144.065z"/>
		</g>
		<g id="Layer_7" display="inline">
			<path d="M80.485,166.984c7.403,3.979,109.95,59.062,113.769,61.112c3.812,2.054,8.763,3.046,13.749,3.046
				c4.972,0,9.92-0.992,13.733-3.046c3.814-2.05,106.362-57.134,113.77-61.112c7.41-3.974,14.422-16.464,0.812-16.464H79.672
				C66.062,150.52,73.071,163.01,80.485,166.984z M338.643,197.318c-8.419,4.394-111.743,58.435-116.906,61.12
				c-5.148,2.682-8.765,3.038-13.733,3.038c-4.986,0-8.601-0.356-13.749-3.038c-5.15-2.688-108.488-56.729-116.908-61.12
				c-5.913-3.083-5.862,0.541-5.862,3.333c0,2.798,0,111.279,0,111.279c0,6.357,8.458,14.55,15.033,14.55h242.959
				c6.576,0,15.047-8.189,15.047-14.55c0,0,0-108.481,0-111.279C344.52,197.859,344.57,194.234,338.643,197.318z"/>
		</g>
		<g id="Layer_6" display="inline">
			<path d="M100.334,177.659c0,21.274,7.105,36.637,21.121,45.667c11.468,7.396,24.797,8.499,31.715,8.499
				c1.673,0,3.021-0.071,3.966-0.124c0,0-2.198,14.286,8.409,28.44l-0.489-0.015c-18.359,0-78.267,3.851-78.267,53.087
				c0,50.112,55.021,52.655,66.059,52.655c0.859,0,1.361-0.021,1.361-0.021c0.132,0,0.919,0.034,2.258,0.034
				c7.084,0,25.396-0.896,42.395-9.15c22.063-10.713,33.244-29.337,33.244-55.355c0-25.146-17.047-40.109-29.479-51.056
				c-7.601-6.651-14.167-12.409-14.167-18.007c0-5.703,4.802-9.985,10.856-15.422c9.819-8.774,19.064-21.271,19.064-44.895
				c0-20.761-2.688-34.692-19.28-43.541c1.732-0.884,7.848-1.526,10.871-1.944c8.995-1.23,22.135-2.622,22.135-9.966v-1.421h-65.521
				C165.927,115.147,100.334,117.578,100.334,177.659z M206.102,306.061c1.252,20.044-15.889,34.833-41.632,36.694
				c-26.136,1.912-47.662-9.854-48.905-29.861c-0.606-9.616,3.62-19.056,11.897-26.559c8.396-7.598,19.926-12.29,32.455-13.212
				c1.48-0.094,2.953-0.152,4.421-0.152C188.529,272.971,204.917,287.187,206.102,306.061z M188.994,163.945
				c6.426,22.601-3.285,46.243-18.743,50.601c-1.78,0.496-3.62,0.753-5.482,0.753c-14.169,0-28.205-14.334-33.413-34.071
				c-2.9-11.101-2.664-20.792,0.67-30.115c3.271-9.174,9.16-15.368,16.568-17.447c1.78-0.508,3.619-0.765,5.483-0.765
				C171.184,132.898,182.173,139.994,188.994,163.945z M299.383,213.184v-42.747h-27.068v42.747h-42.738v27.066h42.738v42.742
				h27.068v-42.742h42.738v-27.066H299.383z"/>
		</g>
	</g>
	<g id="Layer_2_1_">
		<path display="inline" d="M371.293,343.544c-29.938-26.298-56.438-55.429-78.958-86.854c11.216-4.384,22.017-9.593,32.309-15.604
			c-26.809-23.53-49.806-50.213-68.091-79.358c12.257-3.757,23.904-8.88,34.76-15.213c-19.265-16.918-35.781-36.099-48.883-57.064
			c-14.961-23.96-25.497-50.225-30.668-77.996h-7.523c-5.171,27.771-15.709,54.036-30.667,77.996
			c-13.103,20.967-29.617,40.146-48.884,57.064c10.858,6.333,22.514,11.456,34.761,15.213
			c-18.283,29.146-41.281,55.828-68.092,79.358c10.294,6.012,21.094,11.221,32.312,15.604
			c-22.522,31.426-49.013,60.557-78.959,86.854c45.441,26.517,97.913,42.28,153.931,43.866v49.138h18.722V387.41
			C273.38,385.824,325.852,370.058,371.293,343.544z M136.78,266.089l12.093-16.873l-19.334-7.554
			c-3.489-1.371-6.971-2.829-10.41-4.385c20.869-20.597,39.008-43.108,53.985-66.979l11.188-17.842l-20.131-6.163
			c-3.906-1.194-7.786-2.562-11.596-4.083c13.268-13.745,24.923-28.587,34.683-44.218c8.253-13.22,15.211-27.046,20.742-41.243
			c5.531,14.192,12.491,28.021,20.744,41.243c9.776,15.63,21.425,30.483,34.683,44.218c-3.812,1.521-7.689,2.889-11.586,4.083
			l-20.141,6.163l11.187,17.842c14.979,23.869,33.117,46.383,53.988,66.979c-3.441,1.556-6.92,3.014-10.411,4.385l-19.334,7.554
			l12.092,16.873c18.791,26.229,40.437,51.093,64.396,73.973C301.667,360.613,254.913,371.44,208,371.44
			c-46.91,0-93.665-10.827-135.618-31.379C96.343,317.179,117.99,292.317,136.78,266.089z"/>
	</g>
	<g id="Layer_3_1_" display="inline">
		<path d="M208.901,65.021L12.8,39.715v359.979l187.151,24.146l8.947,1.152l8.959-1.152L405,399.694V39.715L208.901,65.021z
			 M295.301,219.303V71.923l91.793-11.842v323.875l-169.234,21.83V81.922l59.532-7.681v145.062H295.301z M199.951,81.922v323.863
			l-169.244-21.83V60.08L199.951,81.922z"/>
	</g>
</g>
<g id="Layer_2_2_" display="none">
	<path display="inline" fill-rule="evenodd" clip-rule="evenodd" d="M178.534,292.621V155.379L281.466,224L178.534,292.621z"/>
	<g display="inline">
		<path d="M208,24.75C97.959,24.75,8.75,113.958,8.75,224c0,110.041,89.208,199.25,199.25,199.25
			c110.041,0,199.25-89.209,199.25-199.25C407.25,113.958,318.041,24.75,208,24.75z M208,409.968
			c-102.543,0-185.966-83.425-185.966-185.968S105.457,38.033,208,38.033c102.544,0,185.968,83.424,185.968,185.967
			S310.544,409.968,208,409.968z"/>
	</g>
</g>
<g id="Layer_4_1_">
	<g>
		<g>
			<path stroke="#FFFFFF" stroke-miterlimit="10" d="M208.375,24.75C98.265,24.75,9,114.014,9,224.125
				C9,334.235,98.265,423.5,208.375,423.5c110.111,0,199.375-89.265,199.375-199.375C407.75,114.014,318.487,24.75,208.375,24.75z
				 M208.375,410.208c-102.608,0-186.083-83.475-186.083-186.083c0-102.608,83.475-186.083,186.083-186.083
				c102.608,0,186.083,83.475,186.083,186.083C394.458,326.733,310.984,410.208,208.375,410.208z"/>
		</g>
		<g>
			<path stroke="#FFFFFF" stroke-miterlimit="10" d="M141.917,184.25V264h53.167l59.813,53.167V131.083l-59.813,53.167H141.917z
				 M203.91,194.186l37.695-33.502v126.882l-37.695-33.504l-3.777-3.354h-5.05h-39.875v-53.167h39.875h5.05L203.91,194.186z"/>
		</g>
	</g>
</g>
<g id="Layer_5_1_" display="none">
	<g display="inline">
		<g>
			<path stroke="#FFFFFF" stroke-miterlimit="10" d="M141.493,185.766v79.507h53.004l59.632,53.006V132.76l-59.632,53.006H141.493z
				 M203.298,195.673l37.579-33.4v126.495l-37.579-33.397l-3.765-3.346h-5.036h-39.753v-53.007h39.753h5.036L203.298,195.673z"/>
		</g>
		<g>
			<path stroke="#FFFFFF" stroke-miterlimit="10" d="M207.75,411.04c-102.296,0-185.519-83.224-185.519-185.519
				c0-102.297,83.223-185.52,185.519-185.52c41.165,0,79.224,13.498,110.035,36.266c3.171-3.177,6.355-6.347,9.523-9.531
				C294.04,41.645,252.642,26.75,207.75,26.75C97.972,26.75,8.979,115.743,8.979,225.521c0,109.776,88.993,198.77,198.771,198.77
				c43.495,0,83.701-14.01,116.422-37.71c-3.185-3.183-6.374-6.373-9.558-9.557C284.384,398.423,247.53,411.04,207.75,411.04z"/>
		</g>
		<g>
			<path stroke="#FFFFFF" stroke-miterlimit="10" d="M342.928,80.156l-9.107,9.629c38.336,36.279,59.449,84.483,59.449,135.736
				c0,51.252-21.113,99.456-59.449,135.735l9.107,9.627c41.012-38.809,63.593-90.429,63.593-145.362S383.94,118.966,342.928,80.156z
				"/>
		</g>
		<g>
			<path stroke="#FFFFFF" stroke-miterlimit="10" d="M366.767,225.521c0-44.246-17.231-85.836-48.516-117.127l-9.368,9.368
				c28.779,28.787,44.632,67.053,44.632,107.759c0,40.705-15.853,78.97-44.632,107.757l9.368,9.37
				C349.535,311.355,366.767,269.763,366.767,225.521z"/>
		</g>
		<g>
			<path stroke="#FFFFFF" stroke-miterlimit="10" d="M290.144,314.532c23.772-23.771,36.869-55.383,36.869-89.011
				s-13.097-65.242-36.869-89.014l-9.369,9.37c21.275,21.267,32.986,49.557,32.986,79.644c0,30.086-11.711,58.374-32.986,79.644
				L290.144,314.532z"/>
		</g>
	</g>
</g>
<g id="Layer_3_2_" display="none">
	<g display="inline">
		<g>
			<path d="M11.8,210.033h183.03V27.004H11.8V210.033z M24.87,40.08h156.882v156.884H24.87V40.08z M11.8,419.204h183.03V236.179
				H11.8V419.204z M24.87,249.257h156.882v156.87H24.87V249.257z M220.97,27.004v183.03H404V27.004H220.97z M390.924,196.964
				H234.053V40.08h156.871V196.964z M220.97,419.204H404V236.179H220.97V419.204z M234.053,249.257h156.871v156.87H234.053V249.257z
				"/>
		</g>
	</g>
</g>
</svg>
