<?xml version="1.0" encoding="utf-8"?>
<!-- Generator: Adobe Illustrator 15.1.0, SVG Export Plug-In . SVG Version: 6.00 Build 0)  -->
<!DOCTYPE svg PUBLIC "-//W3C//DTD SVG 1.1//EN" "http://www.w3.org/Graphics/SVG/1.1/DTD/svg11.dtd">
<svg version="1.1" id="Layer_1" xmlns="http://www.w3.org/2000/svg" xmlns:xlink="http://www.w3.org/1999/xlink" x="0px" y="0px"
	 width="416px" height="448px" viewBox="0 0 416 448" enable-background="new 0 0 416 448" xml:space="preserve">
<g id="Layer_1_2_" display="none">
	<g id="Layer_1_1_" display="inline">
		<g>
			<g>
				<path d="M229.217,232.185L379.74,75.394c6.035-6.103,6.035-15.979,0-22.072c-6.034-6.088-15.815-6.095-21.853,0L208.368,204.427
					L58.114,52.572c-6.033-6.095-15.815-6.095-21.853,0c-6.035,6.094-6.035,15.971,0,22.064l150.522,156.792L36.261,388.211
					c-6.035,6.088-6.035,15.979,0,22.066c6.021,6.088,15.817,6.103,21.853,0L207.62,259.179l150.268,151.854
					c6.035,6.089,15.816,6.089,21.853,0c6.035-6.102,6.035-15.978,0-22.063L229.217,232.185z"/>
			</g>
		</g>
	</g>
	<g id="Layer_2" display="inline">
		<path d="M409,58H9.384v32.409H409V58z M409,208.721H9.384v32.398H409V208.721z M409,359.452H9.384v32.399H409V359.452z"/>
	</g>
	<g id="Layer_3" display="inline">
		<path d="M338.04,313.617c-16.55,0-32.014,7.604-42.111,20.529l-175.645-87.822c1.245-4.567,1.877-9.233,1.877-13.919
			c0-4.685-0.632-9.351-1.877-13.918L295.93,130.67c10.113,12.93,25.577,20.537,42.109,20.537c29.491,0,53.483-23.987,53.483-53.477
			c0-29.487-23.992-53.478-53.483-53.478c-29.48,0-53.469,23.989-53.469,53.478c0,4.686,0.632,9.354,1.878,13.925l-175.646,87.81
			c-10.104-12.923-25.568-20.527-42.112-20.527c-29.481,0-53.469,23.984-53.469,53.47c0,29.491,23.986,53.483,53.469,53.483
			c16.544,0,32.011-7.611,42.113-20.543l175.644,87.821c-1.244,4.566-1.876,9.231-1.876,13.918
			c0,29.483,23.986,53.472,53.469,53.472c29.491,0,53.483-23.986,53.483-53.472C391.524,337.603,367.531,313.617,338.04,313.617z
			 M338.04,399.317c-17.771,0-32.229-14.459-32.229-32.23c0-17.771,14.458-32.229,32.229-32.229
			c17.772,0,32.231,14.458,32.231,32.229C370.273,384.858,355.815,399.317,338.04,399.317z M68.692,264.635
			c-17.771,0-32.229-14.459-32.229-32.23c0-17.768,14.458-32.224,32.229-32.224c17.772,0,32.23,14.456,32.23,32.224
			C100.923,250.177,86.464,264.635,68.692,264.635z M338.04,65.499c17.772,0,32.231,14.458,32.231,32.23
			c0,17.771-14.459,32.229-32.231,32.229c-17.771,0-32.229-14.458-32.229-32.229C305.813,79.958,320.271,65.499,338.04,65.499z"/>
	</g>
	<g id="Layer_4" display="inline">
		<path d="M271.586,158.243H232.11c-4.67,0-9.885,6.143-9.885,14.357v28.504h49.361v40.638h-49.361v122.014h-46.593V241.742h-42.247
			v-40.638h42.247v-23.916c0-34.292,23.801-62.188,56.478-62.188h39.479L271.586,158.243L271.586,158.243z"/>
	</g>
	<g id="Layer_5" display="inline">
		<path d="M361.406,144.065c-11.123,4.936-23.061,8.261-35.604,9.762c12.805-7.676,22.622-19.82,27.263-34.298
			c-11.979,7.104-25.253,12.261-39.365,15.042C302.381,122.524,286.273,115,268.443,115c-34.229,0-61.983,27.75-61.983,61.985
			c0,4.861,0.537,9.59,1.608,14.126c-51.521-2.582-97.218-27.261-127.783-64.766c-5.327,9.154-8.398,19.806-8.398,31.165
			c0,21.506,10.944,40.472,27.578,51.598c-10.147-0.324-19.717-3.104-28.075-7.753c0,0.256,0,0.51,0,0.771
			c0,30.043,21.37,55.104,49.718,60.788c-5.188,1.419-10.67,2.176-16.329,2.176c-3.991,0-7.876-0.385-11.663-1.112
			c7.893,24.631,30.787,42.558,57.911,43.053c-21.217,16.634-47.938,26.546-76.979,26.546c-5.012,0-9.941-0.303-14.788-0.881
			c27.427,17.597,60.004,27.868,95.016,27.868c114.02,0,176.389-94.467,176.389-176.391c0-2.685-0.067-5.354-0.19-8.025
			C342.585,167.416,353.091,156.498,361.406,144.065z"/>
	</g>
	<g id="Layer_7" display="inline">
		<path d="M80.485,166.984c7.403,3.979,109.95,59.063,113.768,61.112c3.813,2.054,8.763,3.046,13.749,3.046
			c4.972,0,9.92-0.992,13.734-3.046c3.814-2.049,106.362-57.133,113.769-61.112c7.411-3.974,14.422-16.464,0.812-16.464H79.672
			C66.062,150.52,73.071,163.01,80.485,166.984z M338.643,197.318c-8.419,4.394-111.743,58.435-116.906,61.12
			c-5.149,2.682-8.765,3.038-13.734,3.038c-4.986,0-8.6-0.356-13.749-3.038c-5.15-2.687-108.488-56.728-116.908-61.12
			c-5.913-3.083-5.862,0.541-5.862,3.333c0,2.798,0,111.279,0,111.279c0,6.358,8.458,14.55,15.033,14.55h242.959
			c6.576,0,15.047-8.189,15.047-14.55c0,0,0-108.481,0-111.279C344.52,197.859,344.57,194.234,338.643,197.318z"/>
	</g>
	<g id="Layer_6" display="inline">
		<path d="M100.334,177.659c0,21.274,7.106,36.637,21.121,45.667c11.468,7.396,24.797,8.499,31.715,8.499
			c1.673,0,3.021-0.071,3.966-0.124c0,0-2.198,14.286,8.409,28.44l-0.489-0.014c-18.359,0-78.267,3.85-78.267,53.087
			c0,50.112,55.021,52.655,66.059,52.655c0.859,0,1.361-0.021,1.361-0.021c0.132,0,0.919,0.035,2.258,0.035
			c7.084,0,25.396-0.896,42.395-9.151c22.063-10.713,33.244-29.337,33.244-55.355c0-25.146-17.047-40.11-29.479-51.056
			c-7.6-6.651-14.167-12.409-14.167-18.007c0-5.703,4.802-9.985,10.857-15.422c9.819-8.774,19.064-21.271,19.064-44.894
			c0-20.761-2.688-34.693-19.28-43.541c1.732-0.884,7.848-1.527,10.871-1.945c8.995-1.23,22.135-2.622,22.135-9.965v-1.421h-65.521
			C165.927,115.147,100.334,117.578,100.334,177.659z M206.102,306.061c1.252,20.044-15.889,34.833-41.632,36.695
			c-26.136,1.912-47.662-9.854-48.905-29.862c-0.607-9.616,3.62-19.055,11.897-26.558c8.396-7.598,19.926-12.29,32.455-13.212
			c1.481-0.094,2.953-0.153,4.421-0.153C188.529,272.971,204.917,287.187,206.102,306.061z M188.994,163.945
			c6.426,22.601-3.285,46.243-18.743,50.601c-1.78,0.496-3.62,0.753-5.482,0.753c-14.169,0-28.205-14.334-33.413-34.072
			c-2.901-11.1-2.664-20.792,0.67-30.115c3.271-9.174,9.16-15.368,16.568-17.447c1.78-0.508,3.619-0.765,5.483-0.765
			C171.184,132.898,182.173,139.994,188.994,163.945z M299.383,213.184v-42.747h-27.068v42.747h-42.739v27.067h42.739v42.742h27.068
			v-42.742h42.739v-27.067H299.383z"/>
	</g>
</g>
<g id="Layer_2_1_" display="none">
	<path display="inline" d="M371.293,343.544c-29.938-26.298-56.438-55.429-78.958-86.854c11.216-4.384,22.017-9.593,32.309-15.604
		c-26.809-23.531-49.806-50.213-68.091-79.359c12.257-3.757,23.904-8.88,34.76-15.213c-19.265-16.918-35.781-36.098-48.883-57.064
		c-14.961-23.96-25.497-50.225-30.668-77.996h-7.523c-5.171,27.771-15.709,54.036-30.667,77.996
		c-13.103,20.967-29.618,40.146-48.884,57.064c10.858,6.333,22.513,11.456,34.761,15.213
		c-18.284,29.146-41.282,55.828-68.092,79.359c10.294,6.011,21.093,11.22,32.312,15.604c-22.522,31.426-49.012,60.557-78.959,86.854
		c45.442,26.516,97.913,42.28,153.931,43.866v49.137h18.722V387.41C273.38,385.824,325.852,370.058,371.293,343.544z
		 M136.78,266.089l12.092-16.873l-19.334-7.554c-3.489-1.371-6.97-2.829-10.41-4.385c20.869-20.597,39.008-43.108,53.986-66.979
		l11.188-17.842l-20.131-6.163c-3.906-1.195-7.786-2.562-11.596-4.083c13.268-13.745,24.923-28.587,34.683-44.218
		c8.253-13.22,15.211-27.046,20.742-41.243c5.532,14.192,12.491,28.021,20.744,41.243c9.777,15.63,21.425,30.483,34.683,44.218
		c-3.812,1.521-7.689,2.888-11.586,4.083l-20.141,6.163l11.187,17.842c14.979,23.869,33.117,46.382,53.988,66.979
		c-3.441,1.556-6.92,3.014-10.411,4.385l-19.334,7.554l12.092,16.873c18.791,26.229,40.437,51.092,64.396,73.972
		c-41.951,20.552-88.705,31.379-135.618,31.379c-46.91,0-93.665-10.827-135.618-31.379
		C96.343,317.179,117.99,292.317,136.78,266.089z"/>
</g>
<g id="Layer_3_1_">
	<path d="M208.901,65.021L12.8,39.715v359.979l187.151,24.146l8.948,1.153l8.959-1.153L405,399.694V39.715L208.901,65.021z
		 M295.301,219.303V71.923l91.793-11.842v323.875l-169.234,21.83V81.922l59.532-7.681v145.062H295.301z M199.951,81.922v323.863
		l-169.244-21.83V60.08L199.951,81.922z"/>
</g>
</svg>
